<?xml version="1.0" encoding="iso-8859-1" standalone="no"?> 
<?xml-stylesheet href="p-and-i-d-exercise.css" type="text/css"?> 
<svg xmlns="http://www.w3.org/2000/svg" xmlns:xlink="http://www.w3.org/1999/xlink" width="352.83885pt" height="186.81245pt" viewBox="-164.19649 -94.04813 352.83885 186.81245 "> 
<g transform="translate(0, 92.76433 ) scale(1,-1) translate(0,94.04813 )"> 
                                                 <g>
 <g stroke="rgb(0.0%,0.0%,0.0%)">
 <g fill="rgb(0.0%,0.0%,0.0%)">
 <g stroke-width="0.4pt">
 <g>
 <g>
 <g>
 <g transform="matrix(1.0,0.0,0.0,1.0,-8.81729,-3.4436)">
 <g fill="rgb(0.0%,0.0%,0.0%)">
 <text style="stroke:none" transform="scale(1,-1) translate(8.81729,0)" text-anchor="middle"  font-size="10"> 
<img 
src="../../figures/PInD-ex2.png" alt="PIC"  
></text> 
</g>
 </g>
 </g>
 </g>
 <g>
 </g>
 <g>
 <g fill="rgb(80.0003%,80.0003%,100.0%)">
 <g>
 <g fill="rgb(80.0003%,80.0003%,100.0%)">
 <path d=" M  -107.6111 12.68092 L  -161.19649 12.68092 C  -162.85336 12.68092 -164.19649 11.3378 -164.19649 9.68092 L  -164.19649 0.01881 C  -164.19649 -1.63806 -162.85336 -2.98119 -161.19649 -2.98119 L  -107.6111 -2.98119 C  -105.95422 -2.98119 -104.6111 -1.63806 -104.6111 0.01881 L  -104.6111 9.68092 C  -104.6111 11.3378 -105.95422 12.68092 -107.6111 12.68092 Z M  -164.19649 -2.98119  " style="stroke:none"/>
 </g>
 </g>
 <g>
 <g transform="matrix(1.0,0.0,0.0,1.0,-160.86433,2.60042)">
 <g fill="rgb(0.0%,0.0%,0.0%)">
 <text style="stroke:none" transform="scale(1,-1) translate(26.46054,0)" text-anchor="middle"  font-size="10"> 
<tspan font-family="ecrm" font-size="0900">On/Off valve</tspan></text> 
</g>
 </g>
 </g>
 </g>
 </g>
 <g>
 <g>
 <g stroke="rgb(50.0%,50.0%,50.0%)">
 <g fill="rgb(50.0%,50.0%,50.0%)">
 <g stroke-width="0.2pt">
 <path d=" M  -48.36957 22.76227 L  -104.4111 11.08812  " style="fill:none"/>
 </g>
 </g>
 </g>
 </g>
 </g>
 <g>
 </g>
 <g>
 <g fill="rgb(80.0003%,80.0003%,100.0%)">
 <g>
 <g fill="rgb(80.0003%,80.0003%,100.0%)">
 <path d=" M  -98.64322 62.02803 L  -141.61868 62.02803 C  -143.27556 62.02803 -144.61868 60.6849 -144.61868 59.02803 L  -144.61868 52.16524 C  -144.61868 50.50836 -143.27556 49.16524 -141.61868 49.16524 L  -98.64322 49.16524 C  -96.98634 49.16524 -95.64322 50.50836 -95.64322 52.16524 L  -95.64322 59.02803 C  -95.64322 60.6849 -96.98634 62.02803 -98.64322 62.02803 Z M  -144.61868 49.16524  " style="stroke:none"/>
 </g>
 </g>
 <g>
 <g transform="matrix(1.0,0.0,0.0,1.0,-141.28653,52.49739)">
 <g fill="rgb(0.0%,0.0%,0.0%)">
 <text style="stroke:none" transform="scale(1,-1) translate(21.15558,0)" text-anchor="middle"  font-size="10"> 
<tspan font-family="ecrm" font-size="0900">Fail closed</tspan></text> 
</g>
 </g>
 </g>
 </g>
 </g>
 <g>
 <g>
 <g stroke="rgb(50.0%,50.0%,50.0%)">
 <g fill="rgb(50.0%,50.0%,50.0%)">
 <g stroke-width="0.2pt">
 <path d=" M  -11.38092 34.1432 L  -95.44322 50.73187  " style="fill:none"/>
 </g>
 </g>
 </g>
 </g>
 </g>
 <g>
 </g>
 <g>
 <g fill="rgb(80.0003%,80.0003%,100.0%)">
 <g>
 <g fill="rgb(80.0003%,80.0003%,100.0%)">
 <path d=" M  185.64236 24.90286 L  71.48645 24.90286 C  69.82957 24.90286 68.48645 23.55974 68.48645 21.90286 L  68.48645 12.24075 C  68.48645 10.58388 69.82957 9.24075 71.48645 9.24075 L  185.64236 9.24075 C  187.29924 9.24075 188.64236 10.58388 188.64236 12.24075 L  188.64236 21.90286 C  188.64236 23.55974 187.29924 24.90286 185.64236 24.90286 Z M  68.48645 9.24075  " style="stroke:none"/>
 </g>
 </g>
 <g>
 <g transform="matrix(1.0,0.0,0.0,1.0,71.8186,14.82236)">
 <g fill="rgb(0.0%,0.0%,0.0%)">
 <text style="stroke:none" transform="scale(1,-1) translate(56.7458,0)" text-anchor="middle"  font-size="10"> 
<tspan font-family="ecrm" font-size="0900">Pneumatic cylinder (piston)</tspan></text> 
</g>
 </g>
 </g>
 </g>
 </g>
 <g>
 <g>
 <g stroke="rgb(50.0%,50.0%,50.0%)">
 <g fill="rgb(50.0%,50.0%,50.0%)">
 <g stroke-width="0.2pt">
 <path d=" M  -17.07181 17.07181 L  68.28645 17.07181  " style="fill:none"/>
 </g>
 </g>
 </g>
 </g>
 </g>
 <g>
 </g>
 <g>
 <g fill="rgb(80.0003%,80.0003%,100.0%)">
 <g>
 <g fill="rgb(80.0003%,80.0003%,100.0%)">
 <path d=" M  -73.4679 -27.15315 L  -111.38348 -27.15315 C  -113.04036 -27.15315 -114.38348 -28.49628 -114.38348 -30.15315 L  -114.38348 -39.81526 C  -114.38348 -41.47214 -113.04036 -42.81526 -111.38348 -42.81526 L  -73.4679 -42.81526 C  -71.81102 -42.81526 -70.4679 -41.47214 -70.4679 -39.81526 L  -70.4679 -30.15315 C  -70.4679 -28.49628 -71.81102 -27.15315 -73.4679 -27.15315 Z M  -114.38348 -42.81526  " style="stroke:none"/>
 </g>
 </g>
 <g>
 <g transform="matrix(1.0,0.0,0.0,1.0,-111.05133,-37.23366)">
 <g fill="rgb(0.0%,0.0%,0.0%)">
 <text style="stroke:none" transform="scale(1,-1) translate(18.62564,0)" text-anchor="middle"  font-size="10"> 
<tspan font-family="ecrm" font-size="0900">3/2 valve</tspan></text> 
</g>
 </g>
 </g>
 </g>
 </g>
 <g>
 <g>
 <g stroke="rgb(50.0%,50.0%,50.0%)">
 <g fill="rgb(50.0%,50.0%,50.0%)">
 <g stroke-width="0.2pt">
 <path d=" M  -14.22636 -17.07181 L  -70.2679 -29.90932  " style="fill:none"/>
 </g>
 </g>
 </g>
 </g>
 </g>
 <g>
 </g>
 <g>
 <g fill="rgb(80.0003%,80.0003%,100.0%)">
 <g>
 <g fill="rgb(80.0003%,80.0003%,100.0%)">
 <path d=" M  130.75839 7.6219 L  67.77744 7.6219 C  66.12056 7.6219 64.77744 6.27878 64.77744 4.6219 L  64.77744 -3.99046 C  64.77744 -5.64734 66.12056 -6.99046 67.77744 -6.99046 L  130.75839 -6.99046 C  132.41527 -6.99046 133.75839 -5.64734 133.75839 -3.99046 L  133.75839 4.6219 C  133.75839 6.27878 132.41527 7.6219 130.75839 7.6219 Z M  64.77744 -6.99046  " style="stroke:none"/>
 </g>
 </g>
 <g>
 <g transform="matrix(1.0,0.0,0.0,1.0,68.10959,-1.90874)">
 <g fill="rgb(0.0%,0.0%,0.0%)">
 <text style="stroke:none" transform="scale(1,-1) translate(31.15833,0)" text-anchor="middle"  font-size="10"> 
<tspan font-family="ecrm" font-size="0900">Compressed air</tspan></text> 
</g>
 </g>
 </g>
 </g>
 </g>
 <g>
 <g>
 <g stroke="rgb(50.0%,50.0%,50.0%)">
 <g fill="rgb(50.0%,50.0%,50.0%)">
 <g stroke-width="0.2pt">
 <path d=" M  8.5359 -17.07181 L  64.57744 -6.32901  " style="fill:none"/>
 </g>
 </g>
 </g>
 </g>
 </g>
 <g>
 </g>
 <g>
 <g fill="rgb(80.0003%,80.0003%,100.0%)">
 <g>
 <g fill="rgb(80.0003%,80.0003%,100.0%)">
 <path d=" M  -14.38464 -70.72708 L  -48.96082 -70.72708 C  -50.61769 -70.72708 -51.96082 -72.0702 -51.96082 -73.72708 L  -51.96082 -80.58987 C  -51.96082 -82.24675 -50.61769 -83.58987 -48.96082 -83.58987 L  -14.38464 -83.58987 C  -12.72777 -83.58987 -11.38464 -82.24675 -11.38464 -80.58987 L  -11.38464 -73.72708 C  -11.38464 -72.0702 -12.72777 -70.72708 -14.38464 -70.72708 Z M  -51.96082 -83.58987  " style="stroke:none"/>
 </g>
 </g>
 <g>
 <g transform="matrix(1.0,0.0,0.0,1.0,-48.62866,-80.25772)">
 <g fill="rgb(0.0%,0.0%,0.0%)">
 <text style="stroke:none" transform="scale(1,-1) translate(16.95593,0)" text-anchor="middle"  font-size="10"> 
<tspan font-family="ecrm" font-size="0900">Solenoid</tspan></text> 
</g>
 </g>
 </g>
 </g>
 </g>
 <g>
 <g>
 <g stroke="rgb(50.0%,50.0%,50.0%)">
 <g fill="rgb(50.0%,50.0%,50.0%)">
 <g stroke-width="0.2pt">
 <path d=" M  -4.26773 -31.29819 L  -27.71016 -70.52708  " style="fill:none"/>
 </g>
 </g>
 </g>
 </g>
 </g>
 <g>
 </g>
 <g>
 <g fill="rgb(80.0003%,80.0003%,100.0%)">
 <g>
 <g fill="rgb(80.0003%,80.0003%,100.0%)">
 <path d=" M  82.38016 -79.43576 L  23.78976 -79.43576 C  22.13289 -79.43576 20.78976 -80.77888 20.78976 -82.43576 L  20.78976 -91.04813 C  20.78976 -92.705 22.13289 -94.04813 23.78976 -94.04813 L  82.38016 -94.04813 C  84.03703 -94.04813 85.38016 -92.705 85.38016 -91.04813 L  85.38016 -82.43576 C  85.38016 -80.77888 84.03703 -79.43576 82.38016 -79.43576 Z M  20.78976 -94.04813  " style="stroke:none"/>
 </g>
 </g>
 <g>
 <g transform="matrix(1.0,0.0,0.0,1.0,24.12192,-88.9664)">
 <g fill="rgb(0.0%,0.0%,0.0%)">
 <text style="stroke:none" transform="scale(1,-1) translate(28.96304,0)" text-anchor="middle"  font-size="10"> 
<tspan font-family="ecrm" font-size="0900">Digital output</tspan></text> 
</g>
 </g>
 </g>
 </g>
 </g>
 <g>
 <g>
 <g stroke="rgb(50.0%,50.0%,50.0%)">
 <g fill="rgb(50.0%,50.0%,50.0%)">
 <g stroke-width="0.2pt">
 <path d=" M  15.6491 -51.21501 L  45.17848 -79.23576  " style="fill:none"/>
 </g>
 </g>
 </g>
 </g>
 </g>
 <g>
 </g>
 <g>
 <g fill="rgb(80.0003%,80.0003%,100.0%)">
 <g>
 <g fill="rgb(80.0003%,80.0003%,100.0%)">
 <path d=" M  133.93077 -36.24771 L  82.86775 -36.24771 C  81.21088 -36.24771 79.86775 -37.59084 79.86775 -39.24771 L  79.86775 -46.1105 C  79.86775 -47.76738 81.21088 -49.1105 82.86775 -49.1105 L  133.93077 -49.1105 C  135.58765 -49.1105 136.93077 -47.76738 136.93077 -46.1105 L  136.93077 -39.24771 C  136.93077 -37.59084 135.58765 -36.24771 133.93077 -36.24771 Z M  79.86775 -49.1105  " style="stroke:none"/>
 </g>
 </g>
 <g>
 <g transform="matrix(1.0,0.0,0.0,1.0,83.1999,-45.77835)">
 <g fill="rgb(0.0%,0.0%,0.0%)">
 <text style="stroke:none" transform="scale(1,-1) translate(25.19936,0)" text-anchor="middle"  font-size="10"> 
<tspan font-family="ecrm" font-size="0900">Hand switch</tspan></text> 
</g>
 </g>
 </g>
 </g>
 </g>
 <g>
 <g>
 <g stroke="rgb(50.0%,50.0%,50.0%)">
 <g fill="rgb(50.0%,50.0%,50.0%)">
 <g stroke-width="0.2pt">
 <path d=" M  51.21501 -42.67911 L  79.66776 -42.67911  " style="fill:none"/>
 </g>
 </g>
 </g>
 </g>
 </g>
 <g>
 </g>
 <g>
 <g fill="rgb(80.0003%,80.0003%,100.0%)">
 <g>
 <g fill="rgb(80.0003%,80.0003%,100.0%)">
 <path d=" M  -32.84839 92.76433 L  -114.30475 92.76433 C  -115.96162 92.76433 -117.30475 91.4212 -117.30475 89.76433 L  -117.30475 81.15196 C  -117.30475 79.49509 -115.96162 78.15196 -114.30475 78.15196 L  -32.84839 78.15196 C  -31.19151 78.15196 -29.84839 79.49509 -29.84839 81.15196 L  -29.84839 89.76433 C  -29.84839 91.4212 -31.19151 92.76433 -32.84839 92.76433 Z M  -117.30475 78.15196  " style="stroke:none"/>
 </g>
 </g>
 <g>
 <g transform="matrix(1.0,0.0,0.0,1.0,-113.9726,83.23369)">
 <g fill="rgb(0.0%,0.0%,0.0%)">
 <text style="stroke:none" transform="scale(1,-1) translate(40.39603,0)" text-anchor="middle"  font-size="10"> 
<tspan font-family="ecrm" font-size="0900">Ball valve, 2in diam</tspan></text> 
</g>
 </g>
 </g>
 </g>
 </g>
 <g>
 <g>
 <g stroke="rgb(50.0%,50.0%,50.0%)">
 <g fill="rgb(50.0%,50.0%,50.0%)">
 <g stroke-width="0.2pt">
 <path d=" M  -19.91682 51.21501 L  -61.81943 77.95197  " style="fill:none"/>
 </g>
 </g>
 </g>
 </g>
 </g>
 <g>
 </g>
 <g>
 <g fill="rgb(80.0003%,80.0003%,100.0%)">
 <g>
 <g fill="rgb(80.0003%,80.0003%,100.0%)">
 <path d=" M  87.0171 91.01476 L  1.55064 91.01476 C  -0.10623 91.01476 -1.44936 89.67163 -1.44936 88.01476 L  -1.44936 81.15196 C  -1.44936 79.49509 -0.10623 78.15196 1.55064 78.15196 L  87.0171 78.15196 C  88.67398 78.15196 90.0171 79.49509 90.0171 81.15196 L  90.0171 88.01476 C  90.0171 89.67163 88.67398 91.01476 87.0171 91.01476 Z M  -1.44936 78.15196  " style="stroke:none"/>
 </g>
 </g>
 <g>
 <g transform="matrix(1.0,0.0,0.0,1.0,1.8828,81.48412)">
 <g fill="rgb(0.0%,0.0%,0.0%)">
 <text style="stroke:none" transform="scale(1,-1) translate(42.40108,0)" text-anchor="middle"  font-size="10"> 
<tspan font-family="ecrm" font-size="0900">Threaded connection</tspan></text> 
</g>
 </g>
 </g>
 </g>
 </g>
 <g>
 <g>
 <g stroke="rgb(50.0%,50.0%,50.0%)">
 <g fill="rgb(50.0%,50.0%,50.0%)">
 <g stroke-width="0.2pt">
 <path d=" M  -11.38092 51.21501 L  33.2216 77.95197  " style="fill:none"/>
 </g>
 </g>
 </g>
 </g>
 </g>
 <g>
 </g>
 <g>
 <g fill="rgb(80.0003%,80.0003%,100.0%)">
 <g>
 <g fill="rgb(80.0003%,80.0003%,100.0%)">
 <path d=" M  -80.9349 -76.61205 L  -138.89075 -76.61205 C  -140.54762 -76.61205 -141.89075 -77.95517 -141.89075 -79.61205 L  -141.89075 -86.47484 C  -141.89075 -88.13171 -140.54762 -89.47484 -138.89075 -89.47484 L  -80.9349 -89.47484 C  -79.27803 -89.47484 -77.9349 -88.13171 -77.9349 -86.47484 L  -77.9349 -79.61205 C  -77.9349 -77.95517 -79.27803 -76.61205 -80.9349 -76.61205 Z M  -141.89075 -89.47484  " style="stroke:none"/>
 </g>
 </g>
 <g>
 <g transform="matrix(1.0,0.0,0.0,1.0,-138.5586,-86.14268)">
 <g fill="rgb(0.0%,0.0%,0.0%)">
 <text style="stroke:none" transform="scale(1,-1) translate(28.64577,0)" text-anchor="middle"  font-size="10"> 
<tspan font-family="ecrm" font-size="0900">Solenoid valve</tspan></text> 
</g>
 </g>
 </g>
 </g>
 </g>
 <g>
 <g>
 <g stroke="rgb(50.0%,50.0%,50.0%)">
 <g fill="rgb(50.0%,50.0%,50.0%)">
 <g stroke-width="0.2pt">
 <path d=" M  -34.1432 -39.83366 L  -98.28989 -76.41205  " style="fill:none"/>
 </g>
 </g>
 </g>
 </g>
 </g>
 </g>
 </g>
 </g>
 </g>
 </g>
 
                                                                                                                  </g> 
</svg> 
