<?xml version="1.0" encoding="iso-8859-1" standalone="no"?> 
<?xml-stylesheet href="p-and-i-d-exercise.css" type="text/css"?> 
<svg xmlns="http://www.w3.org/2000/svg" xmlns:xlink="http://www.w3.org/1999/xlink" width="837.93744pt" height="176.11287pt" viewBox="-426.7542 -87.57089 837.93744 176.11287 "> 
<g transform="translate(0, 88.54198 ) scale(1,-1) translate(0,87.57089 )"> 
                                                                                                                                <g>
 <g stroke="rgb(0.0%,0.0%,0.0%)">
 <g fill="rgb(0.0%,0.0%,0.0%)">
 <g stroke-width="0.4pt">
 <g>
 <g>
 <g>
 <g transform="matrix(1.0,0.0,0.0,1.0,-8.81729,-3.4436)">
 <g fill="rgb(0.0%,0.0%,0.0%)">
 <text style="stroke:none" transform="scale(1,-1) translate(8.81729,0)" text-anchor="middle"  font-size="10"> 
<img 
src="../../figures/PInD-ex4.png" alt="PIC"  
></text> 
</g>
 </g>
 </g>
 </g>
 <g>
 </g>
 <g>
 <g fill="rgb(80.0003%,80.0003%,100.0%)">
 <g>
 <g fill="rgb(80.0003%,80.0003%,100.0%)">
 <path d=" M  -93.38474 45.7064 L  -169.73114 45.7064 C  -171.38802 45.7064 -172.73114 44.36328 -172.73114 42.7064 L  -172.73114 35.84361 C  -172.73114 34.18674 -171.38802 32.84361 -169.73114 32.84361 L  -93.38474 32.84361 C  -91.72786 32.84361 -90.38474 34.18674 -90.38474 35.84361 L  -90.38474 42.7064 C  -90.38474 44.36328 -91.72786 45.7064 -93.38474 45.7064 Z M  -172.73114 32.84361  " style="stroke:none"/>
 </g>
 </g>
 <g>
 <g transform="matrix(1.0,0.0,0.0,1.0,-169.39899,36.17577)">
 <g fill="rgb(0.0%,0.0%,0.0%)">
 <text style="stroke:none" transform="scale(1,-1) translate(37.84105,0)" text-anchor="middle"  font-size="10"> 
<tspan font-family="ecrm" font-size="0900">Level control valve</tspan></text> 
</g>
 </g>
 </g>
 </g>
 </g>
 <g>
 <g>
 <g stroke="rgb(50.0%,50.0%,50.0%)">
 <g fill="rgb(50.0%,50.0%,50.0%)">
 <g stroke-width="0.2pt">
 <path d=" M  -34.1432 22.76227 L  -92.445 32.64362  " style="fill:none"/>
 </g>
 </g>
 </g>
 </g>
 </g>
 <g>
 </g>
 <g>
 <g fill="rgb(80.0003%,80.0003%,100.0%)">
 <g>
 <g fill="rgb(80.0003%,80.0003%,100.0%)">
 <path d=" M  -99.0752 8.71777 L  -184.54166 8.71777 C  -186.19853 8.71777 -187.54166 7.37465 -187.54166 5.71777 L  -187.54166 -1.14502 C  -187.54166 -2.8019 -186.19853 -4.14502 -184.54166 -4.14502 L  -99.0752 -4.14502 C  -97.41832 -4.14502 -96.0752 -2.8019 -96.0752 -1.14502 L  -96.0752 5.71777 C  -96.0752 7.37465 -97.41832 8.71777 -99.0752 8.71777 Z M  -187.54166 -4.14502  " style="stroke:none"/>
 </g>
 </g>
 <g>
 <g transform="matrix(1.0,0.0,0.0,1.0,-184.2095,-0.81287)">
 <g fill="rgb(0.0%,0.0%,0.0%)">
 <text style="stroke:none" transform="scale(1,-1) translate(42.40108,0)" text-anchor="middle"  font-size="10"> 
<tspan font-family="ecrm" font-size="0900">Threaded connection</tspan></text> 
</g>
 </g>
 </g>
 </g>
 </g>
 <g>
 <g>
 <g stroke="rgb(50.0%,50.0%,50.0%)">
 <g fill="rgb(50.0%,50.0%,50.0%)">
 <g stroke-width="0.2pt">
 <path d=" M  -39.83366 -14.22636 L  -100.86462 -4.34502  " style="fill:none"/>
 </g>
 </g>
 </g>
 </g>
 </g>
 <g>
 </g>
 <g>
 <g fill="rgb(80.0003%,80.0003%,100.0%)">
 <g>
 <g fill="rgb(80.0003%,80.0003%,100.0%)">
 <path d=" M  383.0075 -63.7081 L  37.3432 -63.7081 C  35.68633 -63.7081 34.3432 -65.05122 34.3432 -66.7081 L  34.3432 -84.57089 C  34.3432 -86.22777 35.68633 -87.57089 37.3432 -87.57089 L  383.0075 -87.57089 C  384.66438 -87.57089 386.0075 -86.22777 386.0075 -84.57089 L  386.0075 -66.7081 C  386.0075 -65.05122 384.66438 -63.7081 383.0075 -63.7081 Z M  34.3432 -87.57089  " style="stroke:none"/>
 </g>
 </g>
 <g>
 <g transform="matrix(1.0,0.0,0.0,1.0,37.67535,-84.23874)">
 <g fill="rgb(0.0%,0.0%,0.0%)">
 <text style="stroke:none" transform="scale(1,-1) translate(172.5,0)" text-anchor="middle"  font-size="10"> 
<img 
src="p-and-i-d-exercise19x.png" alt="Globe valve
1.5in diam  "  class="pic-halign" ></text> 
</g>
 </g>
 </g>
 </g>
 </g>
 <g>
 <g>
 <g stroke="rgb(50.0%,50.0%,50.0%)">
 <g fill="rgb(50.0%,50.0%,50.0%)">
 <g stroke-width="0.2pt">
 <path d=" M  5.69046 -14.22636 L  169.78705 -63.5081  " style="fill:none"/>
 </g>
 </g>
 </g>
 </g>
 </g>
 <g>
 </g>
 <g>
 <g fill="rgb(80.0003%,80.0003%,100.0%)">
 <g>
 <g fill="rgb(80.0003%,80.0003%,100.0%)">
 <path d=" M  110.24188 -37.18866 L  67.26642 -37.18866 C  65.60954 -37.18866 64.26642 -38.53178 64.26642 -40.18866 L  64.26642 -47.05145 C  64.26642 -48.70833 65.60954 -50.05145 67.26642 -50.05145 L  110.24188 -50.05145 C  111.89876 -50.05145 113.24188 -48.70833 113.24188 -47.05145 L  113.24188 -40.18866 C  113.24188 -38.53178 111.89876 -37.18866 110.24188 -37.18866 Z M  64.26642 -50.05145  " style="stroke:none"/>
 </g>
 </g>
 <g>
 <g transform="matrix(1.0,0.0,0.0,1.0,67.59857,-46.7193)">
 <g fill="rgb(0.0%,0.0%,0.0%)">
 <text style="stroke:none" transform="scale(1,-1) translate(21.15558,0)" text-anchor="middle"  font-size="10"> 
<tspan font-family="ecrm" font-size="0900">Fail closed</tspan></text> 
</g>
 </g>
 </g>
 </g>
 </g>
 <g>
 <g>
 <g stroke="rgb(50.0%,50.0%,50.0%)">
 <g fill="rgb(50.0%,50.0%,50.0%)">
 <g stroke-width="0.2pt">
 <path d=" M  0.0 0.0 L  75.26512 -36.98866  " style="fill:none"/>
 </g>
 </g>
 </g>
 </g>
 </g>
 <g>
 </g>
 <g>
 <g fill="rgb(80.0003%,80.0003%,100.0%)">
 <g>
 <g fill="rgb(80.0003%,80.0003%,100.0%)">
 <path d=" M  -8.14067 79.44878 L  -149.78221 79.44878 C  -151.43909 79.44878 -152.78221 78.10565 -152.78221 76.44878 L  -152.78221 66.78667 C  -152.78221 65.12979 -151.43909 63.78667 -149.78221 63.78667 L  -8.14067 63.78667 C  -6.4838 63.78667 -5.14067 65.12979 -5.14067 66.78667 L  -5.14067 76.44878 C  -5.14067 78.10565 -6.4838 79.44878 -8.14067 79.44878 Z M  -152.78221 63.78667  " style="stroke:none"/>
 </g>
 </g>
 <g>
 <g transform="matrix(1.0,0.0,0.0,1.0,-149.45006,69.36827)">
 <g fill="rgb(0.0%,0.0%,0.0%)">
 <text style="stroke:none" transform="scale(1,-1) translate(70.48862,0)" text-anchor="middle"  font-size="10"> 
<tspan font-family="ecrm" font-size="0900">Compressed air (pneumatic signal)</tspan></text> 
</g>
 </g>
 </g>
 </g>
 </g>
 <g>
 <g>
 <g stroke="rgb(50.0%,50.0%,50.0%)">
 <g fill="rgb(50.0%,50.0%,50.0%)">
 <g stroke-width="0.2pt">
 <path d=" M  0.0 35.56592 L  -61.37979 63.58667  " style="fill:none"/>
 </g>
 </g>
 </g>
 </g>
 </g>
 <g>
 </g>
 <g>
 <g fill="rgb(80.0003%,80.0003%,100.0%)">
 <g>
 <g fill="rgb(80.0003%,80.0003%,100.0%)">
 <path d=" M  408.18324 88.54198 L  62.51894 88.54198 C  60.86206 88.54198 59.51894 87.19885 59.51894 85.54198 L  59.51894 45.12932 C  59.51894 43.47244 60.86206 42.12932 62.51894 42.12932 L  408.18324 42.12932 C  409.84012 42.12932 411.18324 43.47244 411.18324 45.12932 L  411.18324 85.54198 C  411.18324 87.19885 409.84012 88.54198 408.18324 88.54198 Z M  59.51894 42.12932  " style="stroke:none"/>
 </g>
 </g>
 <g>
 <g transform="matrix(1.0,0.0,0.0,1.0,62.85109,45.46147)">
 <g fill="rgb(0.0%,0.0%,0.0%)">
 <text style="stroke:none" transform="scale(1,-1) translate(172.5,0)" text-anchor="middle"  font-size="10"> 
<img 
src="p-and-i-d-exercise21x.png" alt="<img src="p-and-i-d-exercise20x.png" alt=" Level compute/relay
I/P converter         located in field    "  class="pic-halign" >
"  class="pic-halign" ></text> 
</g>
 </g>
 </g>
 </g>
 </g>
 <g>
 <g>
 <g stroke="rgb(50.0%,50.0%,50.0%)">
 <g fill="rgb(50.0%,50.0%,50.0%)">
 <g stroke-width="0.2pt">
 <path d=" M  31.29819 36.98865 L  66.93027 41.92932  " style="fill:none"/>
 </g>
 </g>
 </g>
 </g>
 </g>
 <g>
 </g>
 <g>
 <g fill="rgb(80.0003%,80.0003%,100.0%)">
 <g>
 <g fill="rgb(80.0003%,80.0003%,100.0%)">
 <path d=" M  211.03041 32.91347 L  77.17729 32.91347 C  75.52042 32.91347 74.17729 31.57034 74.17729 29.91347 L  74.17729 21.3011 C  74.17729 19.64423 75.52042 18.3011 77.17729 18.3011 L  211.03041 18.3011 C  212.68729 18.3011 214.03041 19.64423 214.03041 21.3011 L  214.03041 29.91347 C  214.03041 31.57034 212.68729 32.91347 211.03041 32.91347 Z M  74.17729 18.3011  " style="stroke:none"/>
 </g>
 </g>
 <g>
 <g transform="matrix(1.0,0.0,0.0,1.0,77.50945,23.38283)">
 <g fill="rgb(0.0%,0.0%,0.0%)">
 <text style="stroke:none" transform="scale(1,-1) translate(66.5944,0)" text-anchor="middle"  font-size="10"> 
<tspan font-family="ecrm" font-size="0900">Current to pneumatic conversion</tspan></text> 
</g>
 </g>
 </g>
 </g>
 </g>
 <g>
 <g>
 <g stroke="rgb(50.0%,50.0%,50.0%)">
 <g fill="rgb(50.0%,50.0%,50.0%)">
 <g stroke-width="0.2pt">
 <path d=" M  45.52455 25.60728 L  73.9773 25.60728  " style="fill:none"/>
 </g>
 </g>
 </g>
 </g>
 </g>
 <g>
 </g>
 <g>
 <g fill="rgb(80.0003%,80.0003%,100.0%)">
 <g>
 <g fill="rgb(80.0003%,80.0003%,100.0%)">
 <path d=" M  182.08246 4.14502 L  62.08698 4.14502 C  60.4301 4.14502 59.08698 2.8019 59.08698 1.14502 L  59.08698 -7.46735 C  59.08698 -9.12422 60.4301 -10.46735 62.08698 -10.46735 L  182.08246 -10.46735 C  183.73933 -10.46735 185.08246 -9.12422 185.08246 -7.46735 L  185.08246 1.14502 C  185.08246 2.8019 183.73933 4.14502 182.08246 4.14502 Z M  59.08698 -10.46735  " style="stroke:none"/>
 </g>
 </g>
 <g>
 <g transform="matrix(1.0,0.0,0.0,1.0,62.41913,-5.38562)">
 <g fill="rgb(0.0%,0.0%,0.0%)">
 <text style="stroke:none" transform="scale(1,-1) translate(59.66559,0)" text-anchor="middle"  font-size="10"> 
<tspan font-family="ecrm" font-size="0900">Pneumatically actuated valve</tspan></text> 
</g>
 </g>
 </g>
 </g>
 </g>
 <g>
 <g>
 <g stroke="rgb(50.0%,50.0%,50.0%)">
 <g fill="rgb(50.0%,50.0%,50.0%)">
 <g stroke-width="0.2pt">
 <path d=" M  2.84544 14.22636 L  70.61122 4.34502  " style="fill:none"/>
 </g>
 </g>
 </g>
 </g>
 </g>
 <g>
 </g>
 <g>
 <g fill="rgb(80.0003%,80.0003%,100.0%)">
 <g>
 <g fill="rgb(80.0003%,80.0003%,100.0%)">
 <path d=" M  -78.08989 -56.6952 L  -423.7542 -56.6952 C  -425.41107 -56.6952 -426.7542 -58.03833 -426.7542 -59.6952 L  -426.7542 -77.558 C  -426.7542 -79.21487 -425.41107 -80.558 -423.7542 -80.558 L  -78.08989 -80.558 C  -76.43301 -80.558 -75.08989 -79.21487 -75.08989 -77.558 L  -75.08989 -59.6952 C  -75.08989 -58.03833 -76.43301 -56.6952 -78.08989 -56.6952 Z M  -426.7542 -80.558  " style="stroke:none"/>
 </g>
 </g>
 <g>
 <g transform="matrix(1.0,0.0,0.0,1.0,-423.42204,-77.22585)">
 <g fill="rgb(0.0%,0.0%,0.0%)">
 <text style="stroke:none" transform="scale(1,-1) translate(172.5,0)" text-anchor="middle"  font-size="10"> 
<img 
src="p-and-i-d-exercise22x.png" alt="Ball valve
1.5in diam  "  class="pic-halign" ></text> 
</g>
 </g>
 </g>
 </g>
 </g>
 <g>
 <g>
 <g stroke="rgb(50.0%,50.0%,50.0%)">
 <g fill="rgb(50.0%,50.0%,50.0%)">
 <g stroke-width="0.2pt">
 <path d=" M  -31.29819 -19.91682 L  -196.24156 -56.49521  " style="fill:none"/>
 </g>
 </g>
 </g>
 </g>
 </g>
 </g>
 </g>
 </g>
 </g>
 </g>
 
                                                                                                                                                                                                                                                                                </g> 
</svg> 
