<?xml version="1.0" encoding="iso-8859-1" standalone="no"?> 
<?xml-stylesheet href="p-and-i-d-exercise.css" type="text/css"?> 
<svg xmlns="http://www.w3.org/2000/svg" xmlns:xlink="http://www.w3.org/1999/xlink" width="853.66428pt" height="173.90106pt" viewBox="-442.04904 -95.19466 853.66428 173.90106 "> 
<g transform="translate(0, 78.7064 ) scale(1,-1) translate(0,95.19466 )"> 
                                                                                                                                     <g>
 <g stroke="rgb(0.0%,0.0%,0.0%)">
 <g fill="rgb(0.0%,0.0%,0.0%)">
 <g stroke-width="0.4pt">
 <g>
 <g>
 <g>
 <g transform="matrix(1.0,0.0,0.0,1.0,-8.81729,-3.4436)">
 <g fill="rgb(0.0%,0.0%,0.0%)">
 <text style="stroke:none" transform="scale(1,-1) translate(8.81729,0)" text-anchor="middle"  font-size="10"> 
<img 
src="../../figures/PInD-ex3.png" alt="PIC"  
></text> 
</g>
 </g>
 </g>
 </g>
 <g>
 </g>
 <g>
 <g fill="rgb(80.0003%,80.0003%,100.0%)">
 <g>
 <g fill="rgb(80.0003%,80.0003%,100.0%)">
 <path d=" M  -93.38474 78.7064 L  -439.04904 78.7064 C  -440.70592 78.7064 -442.04904 77.36328 -442.04904 75.7064 L  -442.04904 35.84361 C  -442.04904 34.18674 -440.70592 32.84361 -439.04904 32.84361 L  -93.38474 32.84361 C  -91.72786 32.84361 -90.38474 34.18674 -90.38474 35.84361 L  -90.38474 75.7064 C  -90.38474 77.36328 -91.72786 78.7064 -93.38474 78.7064 Z M  -442.04904 32.84361  " style="stroke:none"/>
 </g>
 </g>
 <g>
 <g transform="matrix(1.0,0.0,0.0,1.0,-438.71689,36.17577)">
 <g fill="rgb(0.0%,0.0%,0.0%)">
 <text style="stroke:none" transform="scale(1,-1) translate(172.5,0)" text-anchor="middle"  font-size="10"> 
<img 
src="p-and-i-d-exercise12x.png" alt="<img src="p-and-i-d-exercise11x.png" alt=" Flow indicator
on computer screen                "  class="pic-halign" >
in control room
"  class="pic-halign" ></text> 
</g>
 </g>
 </g>
 </g>
 </g>
 <g>
 <g>
 <g stroke="rgb(50.0%,50.0%,50.0%)">
 <g fill="rgb(50.0%,50.0%,50.0%)">
 <g stroke-width="0.2pt">
 <path d=" M  -34.1432 22.76227 L  -103.62158 32.64362  " style="fill:none"/>
 </g>
 </g>
 </g>
 </g>
 </g>
 <g>
 </g>
 <g>
 <g fill="rgb(80.0003%,80.0003%,100.0%)">
 <g>
 <g fill="rgb(80.0003%,80.0003%,100.0%)">
 <path d=" M  178.52261 -71.33186 L  -167.1417 -71.33186 C  -168.79857 -71.33186 -170.1417 -72.67499 -170.1417 -74.33186 L  -170.1417 -92.19466 C  -170.1417 -93.85153 -168.79857 -95.19466 -167.1417 -95.19466 L  178.52261 -95.19466 C  180.17949 -95.19466 181.52261 -93.85153 181.52261 -92.19466 L  181.52261 -74.33186 C  181.52261 -72.67499 180.17949 -71.33186 178.52261 -71.33186 Z M  -170.1417 -95.19466  " style="stroke:none"/>
 </g>
 </g>
 <g>
 <g transform="matrix(1.0,0.0,0.0,1.0,-166.80954,-91.8625)">
 <g fill="rgb(0.0%,0.0%,0.0%)">
 <text style="stroke:none" transform="scale(1,-1) translate(172.5,0)" text-anchor="middle"  font-size="10"> 
<img 
src="p-and-i-d-exercise13x.png" alt="Diaphragm valve
1.5in diam  "  class="pic-halign" ></text> 
</g>
 </g>
 </g>
 </g>
 </g>
 <g>
 <g>
 <g stroke="rgb(50.0%,50.0%,50.0%)">
 <g fill="rgb(50.0%,50.0%,50.0%)">
 <g stroke-width="0.2pt">
 <path d=" M  5.69046 -14.22636 L  5.69046 -71.13187  " style="fill:none"/>
 </g>
 </g>
 </g>
 </g>
 </g>
 <g>
 </g>
 <g>
 <g fill="rgb(80.0003%,80.0003%,100.0%)">
 <g>
 <g fill="rgb(80.0003%,80.0003%,100.0%)">
 <path d=" M  32.60916 60.33691 L  -21.22824 60.33691 C  -22.88512 60.33691 -24.22824 58.99379 -24.22824 57.33691 L  -24.22824 48.72455 C  -24.22824 47.06767 -22.88512 45.72455 -21.22824 45.72455 L  32.60916 45.72455 C  34.26604 45.72455 35.60916 47.06767 35.60916 48.72455 L  35.60916 57.33691 C  35.60916 58.99379 34.26604 60.33691 32.60916 60.33691 Z M  -24.22824 45.72455  " style="stroke:none"/>
 </g>
 </g>
 <g>
 <g transform="matrix(1.0,0.0,0.0,1.0,-20.89609,50.80627)">
 <g fill="rgb(0.0%,0.0%,0.0%)">
 <text style="stroke:none" transform="scale(1,-1) translate(26.58655,0)" text-anchor="middle"  font-size="10"> 
<tspan font-family="ecrm" font-size="0900">Analog input</tspan></text> 
</g>
 </g>
 </g>
 </g>
 </g>
 <g>
 <g>
 <g stroke="rgb(50.0%,50.0%,50.0%)">
 <g fill="rgb(50.0%,50.0%,50.0%)">
 <g stroke-width="0.2pt">
 <path d=" M  5.69046 17.07181 L  5.69046 45.52455  " style="fill:none"/>
 </g>
 </g>
 </g>
 </g>
 </g>
 <g>
 </g>
 <g>
 <g fill="rgb(80.0003%,80.0003%,100.0%)">
 <g>
 <g fill="rgb(80.0003%,80.0003%,100.0%)">
 <path d=" M  408.61523 34.69366 L  62.95093 34.69366 C  61.29405 34.69366 59.95093 33.35054 59.95093 31.69366 L  59.95093 13.83087 C  59.95093 12.174 61.29405 10.83087 62.95093 10.83087 L  408.61523 10.83087 C  410.27211 10.83087 411.61523 12.174 411.61523 13.83087 L  411.61523 31.69366 C  411.61523 33.35054 410.27211 34.69366 408.61523 34.69366 Z M  59.95093 10.83087  " style="stroke:none"/>
 </g>
 </g>
 <g>
 <g transform="matrix(1.0,0.0,0.0,1.0,63.28308,14.16302)">
 <g fill="rgb(0.0%,0.0%,0.0%)">
 <text style="stroke:none" transform="scale(1,-1) translate(172.5,0)" text-anchor="middle"  font-size="10"> 
<img 
src="p-and-i-d-exercise14x.png" alt="Flow indicate transmitter
located in field  "  class="pic-halign" ></text> 
</g>
 </g>
 </g>
 </g>
 </g>
 <g>
 <g>
 <g stroke="rgb(50.0%,50.0%,50.0%)">
 <g fill="rgb(50.0%,50.0%,50.0%)">
 <g stroke-width="0.2pt">
 <path d=" M  31.29819 22.76227 L  59.75093 22.76227  " style="fill:none"/>
 </g>
 </g>
 </g>
 </g>
 </g>
 <g>
 </g>
 <g>
 <g fill="rgb(80.0003%,80.0003%,100.0%)">
 <g>
 <g fill="rgb(80.0003%,80.0003%,100.0%)">
 <path d=" M  -69.55397 -59.54065 L  -123.13933 -59.54065 C  -124.7962 -59.54065 -126.13933 -60.88377 -126.13933 -62.54065 L  -126.13933 -69.40344 C  -126.13933 -71.06032 -124.7962 -72.40344 -123.13933 -72.40344 L  -69.55397 -72.40344 C  -67.8971 -72.40344 -66.55397 -71.06032 -66.55397 -69.40344 L  -66.55397 -62.54065 C  -66.55397 -60.88377 -67.8971 -59.54065 -69.55397 -59.54065 Z M  -126.13933 -72.40344  " style="stroke:none"/>
 </g>
 </g>
 <g>
 <g transform="matrix(1.0,0.0,0.0,1.0,-122.80717,-69.07129)">
 <g fill="rgb(0.0%,0.0%,0.0%)">
 <text style="stroke:none" transform="scale(1,-1) translate(26.46053,0)" text-anchor="middle"  font-size="10"> 
<tspan font-family="ecrm" font-size="0900">T-connection</tspan></text> 
</g>
 </g>
 </g>
 </g>
 </g>
 <g>
 <g>
 <g stroke="rgb(50.0%,50.0%,50.0%)">
 <g fill="rgb(50.0%,50.0%,50.0%)">
 <g stroke-width="0.2pt">
 <path d=" M  -22.76227 -22.76227 L  -85.05894 -59.34065  " style="fill:none"/>
 </g>
 </g>
 </g>
 </g>
 </g>
 </g>
 </g>
 </g>
 </g>
 </g>
 
                                                                                                                                                                                                                                                                                     </g> 
</svg> 
