<?xml version="1.0" encoding="iso-8859-1" standalone="no"?> 
<?xml-stylesheet href="p-and-i-d-exercise.css" type="text/css"?> 
<svg xmlns="http://www.w3.org/2000/svg" xmlns:xlink="http://www.w3.org/1999/xlink" width="857.42145pt" height="200.33238pt" viewBox="-436.35858 -102.72429 857.42145 200.33238 "> 
<g transform="translate(0, 97.6081 ) scale(1,-1) translate(0,102.72429 )"> 
                                                                                                                                   <g>
 <g stroke="rgb(0.0%,0.0%,0.0%)">
 <g fill="rgb(0.0%,0.0%,0.0%)">
 <g stroke-width="0.4pt">
 <g>
 <g>
 <g>
 <g transform="matrix(1.0,0.0,0.0,1.0,-8.81729,-3.4436)">
 <g fill="rgb(0.0%,0.0%,0.0%)">
 <text style="stroke:none" transform="scale(1,-1) translate(8.81729,0)" text-anchor="middle"  font-size="10"> 
<img 
src="../../figures/PInD-ex1.png" alt="PIC"  
></text> 
</g>
 </g>
 </g>
 </g>
 <g>
 </g>
 <g>
 <g fill="rgb(80.0003%,80.0003%,100.0%)">
 <g>
 <g fill="rgb(80.0003%,80.0003%,100.0%)">
 <path d=" M  -87.69427 53.14645 L  -150.29129 53.14645 C  -151.94817 53.14645 -153.29129 51.80333 -153.29129 50.14645 L  -153.29129 41.53409 C  -153.29129 39.87721 -151.94817 38.53409 -150.29129 38.53409 L  -87.69427 38.53409 C  -86.0374 38.53409 -84.69427 39.87721 -84.69427 41.53409 L  -84.69427 50.14645 C  -84.69427 51.80333 -86.0374 53.14645 -87.69427 53.14645 Z M  -153.29129 38.53409  " style="stroke:none"/>
 </g>
 </g>
 <g>
 <g transform="matrix(1.0,0.0,0.0,1.0,-149.95914,43.61581)">
 <g fill="rgb(0.0%,0.0%,0.0%)">
 <text style="stroke:none" transform="scale(1,-1) translate(30.96635,0)" text-anchor="middle"  font-size="10"> 
<tspan font-family="ecrm" font-size="0900">Specific gravity</tspan></text> 
</g>
 </g>
 </g>
 </g>
 </g>
 <g>
 <g>
 <g stroke="rgb(50.0%,50.0%,50.0%)">
 <g fill="rgb(50.0%,50.0%,50.0%)">
 <g stroke-width="0.2pt">
 <path d=" M  -28.45274 28.45274 L  -84.49428 39.22284  " style="fill:none"/>
 </g>
 </g>
 </g>
 </g>
 </g>
 <g>
 </g>
 <g>
 <g fill="rgb(80.0003%,80.0003%,100.0%)">
 <g>
 <g fill="rgb(80.0003%,80.0003%,100.0%)">
 <path d=" M  -87.69427 -10.08134 L  -433.35858 -10.08134 C  -435.01546 -10.08134 -436.35858 -11.42447 -436.35858 -13.08134 L  -436.35858 -30.94414 C  -436.35858 -32.60101 -435.01546 -33.94414 -433.35858 -33.94414 L  -87.69427 -33.94414 C  -86.0374 -33.94414 -84.69427 -32.60101 -84.69427 -30.94414 L  -84.69427 -13.08134 C  -84.69427 -11.42447 -86.0374 -10.08134 -87.69427 -10.08134 Z M  -436.35858 -33.94414  " style="stroke:none"/>
 </g>
 </g>
 <g>
 <g transform="matrix(1.0,0.0,0.0,1.0,-433.02643,-30.61198)">
 <g fill="rgb(0.0%,0.0%,0.0%)">
 <text style="stroke:none" transform="scale(1,-1) translate(172.5,0)" text-anchor="middle"  font-size="10"> 
<img 
src="p-and-i-d-exercise4x.png" alt="Pipe diameter reduced
from 1.5in to 1in  "  class="pic-halign" ></text> 
</g>
 </g>
 </g>
 </g>
 </g>
 <g>
 <g>
 <g stroke="rgb(50.0%,50.0%,50.0%)">
 <g fill="rgb(50.0%,50.0%,50.0%)">
 <g stroke-width="0.2pt">
 <path d=" M  -28.45274 0.0 L  -132.63683 -9.88135  " style="fill:none"/>
 </g>
 </g>
 </g>
 </g>
 </g>
 <g>
 </g>
 <g>
 <g fill="rgb(80.0003%,80.0003%,100.0%)">
 <g>
 <g fill="rgb(80.0003%,80.0003%,100.0%)">
 <path d=" M  418.06287 -28.65274 L  72.39856 -28.65274 C  70.74168 -28.65274 69.39856 -29.99586 69.39856 -31.65274 L  69.39856 -49.51553 C  69.39856 -51.17241 70.74168 -52.51553 72.39856 -52.51553 L  418.06287 -52.51553 C  419.71974 -52.51553 421.06287 -51.17241 421.06287 -49.51553 L  421.06287 -31.65274 C  421.06287 -29.99586 419.71974 -28.65274 418.06287 -28.65274 Z M  69.39856 -52.51553  " style="stroke:none"/>
 </g>
 </g>
 <g>
 <g transform="matrix(1.0,0.0,0.0,1.0,72.73071,-49.18338)">
 <g fill="rgb(0.0%,0.0%,0.0%)">
 <text style="stroke:none" transform="scale(1,-1) translate(172.5,0)" text-anchor="middle"  font-size="10"> 
<img 
src="p-and-i-d-exercise5x.png" alt="Pipe diameter increased
from 1in to 1.5in  "  class="pic-halign" ></text> 
</g>
 </g>
 </g>
 </g>
 </g>
 <g>
 <g>
 <g stroke="rgb(50.0%,50.0%,50.0%)">
 <g fill="rgb(50.0%,50.0%,50.0%)">
 <g stroke-width="0.2pt">
 <path d=" M  19.91682 0.0 L  177.91422 -28.45274  " style="fill:none"/>
 </g>
 </g>
 </g>
 </g>
 </g>
 <g>
 </g>
 <g>
 <g fill="rgb(80.0003%,80.0003%,100.0%)">
 <g>
 <g fill="rgb(80.0003%,80.0003%,100.0%)">
 <path d=" M  108.17065 -84.2623 L  18.02203 -84.2623 C  16.36516 -84.2623 15.02203 -85.60542 15.02203 -87.2623 L  15.02203 -94.12509 C  15.02203 -95.78197 16.36516 -97.12509 18.02203 -97.12509 L  108.17065 -97.12509 C  109.82753 -97.12509 111.17065 -95.78197 111.17065 -94.12509 L  111.17065 -87.2623 C  111.17065 -85.60542 109.82753 -84.2623 108.17065 -84.2623 Z M  15.02203 -97.12509  " style="stroke:none"/>
 </g>
 </g>
 <g>
 <g transform="matrix(1.0,0.0,0.0,1.0,18.35419,-93.79294)">
 <g fill="rgb(0.0%,0.0%,0.0%)">
 <text style="stroke:none" transform="scale(1,-1) translate(44.74216,0)" text-anchor="middle"  font-size="10"> 
<tspan font-family="ecrm" font-size="0900">Coriolis effect element</tspan></text> 
</g>
 </g>
 </g>
 </g>
 </g>
 <g>
 <g>
 <g stroke="rgb(50.0%,50.0%,50.0%)">
 <g fill="rgb(50.0%,50.0%,50.0%)">
 <g stroke-width="0.2pt">
 <path d=" M  0.0 0.0 L  58.48677 -84.0623  " style="fill:none"/>
 </g>
 </g>
 </g>
 </g>
 </g>
 <g>
 </g>
 <g>
 <g fill="rgb(80.0003%,80.0003%,100.0%)">
 <g>
 <g fill="rgb(80.0003%,80.0003%,100.0%)">
 <path d=" M  174.56784 47.94797 L  89.10138 47.94797 C  87.4445 47.94797 86.10138 46.60484 86.10138 44.94797 L  86.10138 38.08517 C  86.10138 36.4283 87.4445 35.08517 89.10138 35.08517 L  174.56784 35.08517 C  176.22472 35.08517 177.56784 36.4283 177.56784 38.08517 L  177.56784 44.94797 C  177.56784 46.60484 176.22472 47.94797 174.56784 47.94797 Z M  86.10138 35.08517  " style="stroke:none"/>
 </g>
 </g>
 <g>
 <g transform="matrix(1.0,0.0,0.0,1.0,89.43353,38.41733)">
 <g fill="rgb(0.0%,0.0%,0.0%)">
 <text style="stroke:none" transform="scale(1,-1) translate(42.40108,0)" text-anchor="middle"  font-size="10"> 
<tspan font-family="ecrm" font-size="0900">Threaded connection</tspan></text> 
</g>
 </g>
 </g>
 </g>
 </g>
 <g>
 <g>
 <g stroke="rgb(50.0%,50.0%,50.0%)">
 <g fill="rgb(50.0%,50.0%,50.0%)">
 <g stroke-width="0.2pt">
 <path d=" M  5.69046 5.69046 L  108.48904 34.88518  " style="fill:none"/>
 </g>
 </g>
 </g>
 </g>
 </g>
 <g>
 </g>
 <g>
 <g fill="rgb(80.0003%,80.0003%,100.0%)">
 <g>
 <g fill="rgb(80.0003%,80.0003%,100.0%)">
 <path d=" M  -13.83113 97.6081 L  -359.49544 97.6081 C  -361.15231 97.6081 -362.49544 96.26497 -362.49544 94.6081 L  -362.49544 76.7453 C  -362.49544 75.08842 -361.15231 73.7453 -359.49544 73.7453 L  -13.83113 73.7453 C  -12.17426 73.7453 -10.83113 75.08842 -10.83113 76.7453 L  -10.83113 94.6081 C  -10.83113 96.26497 -12.17426 97.6081 -13.83113 97.6081 Z M  -362.49544 73.7453  " style="stroke:none"/>
 </g>
 </g>
 <g>
 <g transform="matrix(1.0,0.0,0.0,1.0,-359.16328,77.07745)">
 <g fill="rgb(0.0%,0.0%,0.0%)">
 <text style="stroke:none" transform="scale(1,-1) translate(172.5,0)" text-anchor="middle"  font-size="10"> 
<img 
src="p-and-i-d-exercise6x.png" alt="Analyzer indicate transmitter
located in field  "  class="pic-halign" ></text> 
</g>
 </g>
 </g>
 </g>
 </g>
 <g>
 <g>
 <g stroke="rgb(50.0%,50.0%,50.0%)">
 <g fill="rgb(50.0%,50.0%,50.0%)">
 <g stroke-width="0.2pt">
 <path d=" M  -5.69046 45.52455 L  -131.9915 73.5453  " style="fill:none"/>
 </g>
 </g>
 </g>
 </g>
 </g>
 <g>
 </g>
 <g>
 <g fill="rgb(80.0003%,80.0003%,100.0%)">
 <g>
 <g fill="rgb(80.0003%,80.0003%,100.0%)">
 <path d=" M  387.04861 96.3243 L  41.38431 96.3243 C  39.72743 96.3243 38.38431 94.98117 38.38431 93.3243 L  38.38431 75.4615 C  38.38431 73.80463 39.72743 72.4615 41.38431 72.4615 L  387.04861 72.4615 C  388.70549 72.4615 390.04861 73.80463 390.04861 75.4615 L  390.04861 93.3243 C  390.04861 94.98117 388.70549 96.3243 387.04861 96.3243 Z M  38.38431 72.4615  " style="stroke:none"/>
 </g>
 </g>
 <g>
 <g transform="matrix(1.0,0.0,0.0,1.0,41.71646,75.79366)">
 <g fill="rgb(0.0%,0.0%,0.0%)">
 <text style="stroke:none" transform="scale(1,-1) translate(172.5,0)" text-anchor="middle"  font-size="10"> 
<img 
src="p-and-i-d-exercise7x.png" alt="Flow indicate transmitter
located in field  "  class="pic-halign" ></text> 
</g>
 </g>
 </g>
 </g>
 </g>
 <g>
 <g>
 <g stroke="rgb(50.0%,50.0%,50.0%)">
 <g fill="rgb(50.0%,50.0%,50.0%)">
 <g stroke-width="0.2pt">
 <path d=" M  28.45274 45.52455 L  156.24045 72.2615  " style="fill:none"/>
 </g>
 </g>
 </g>
 </g>
 </g>
 <g>
 </g>
 <g>
 <g fill="rgb(80.0003%,80.0003%,100.0%)">
 <g>
 <g fill="rgb(80.0003%,80.0003%,100.0%)">
 <path d=" M  -80.9349 -76.61205 L  -426.59921 -76.61205 C  -428.25609 -76.61205 -429.59921 -77.95517 -429.59921 -79.61205 L  -429.59921 -99.72429 C  -429.59921 -101.38116 -428.25609 -102.72429 -426.59921 -102.72429 L  -80.9349 -102.72429 C  -79.27803 -102.72429 -77.9349 -101.38116 -77.9349 -99.72429 L  -77.9349 -79.61205 C  -77.9349 -77.95517 -79.27803 -76.61205 -80.9349 -76.61205 Z M  -429.59921 -102.72429  " style="stroke:none"/>
 </g>
 </g>
 <g>
 <g transform="matrix(1.0,0.0,0.0,1.0,-426.26706,-97.14268)">
 <g fill="rgb(0.0%,0.0%,0.0%)">
 <text style="stroke:none" transform="scale(1,-1) translate(172.5,0)" text-anchor="middle"  font-size="10"> 
<img 
src="p-and-i-d-exercise8x.png" alt="Flow element
(primary element)  "  class="pic-halign" ></text> 
</g>
 </g>
 </g>
 </g>
 </g>
 <g>
 <g>
 <g stroke="rgb(50.0%,50.0%,50.0%)">
 <g fill="rgb(50.0%,50.0%,50.0%)">
 <g stroke-width="0.2pt">
 <path d=" M  -34.1432 -39.83366 L  -195.34981 -76.41205  " style="fill:none"/>
 </g>
 </g>
 </g>
 </g>
 </g>
 </g>
 </g>
 </g>
 </g>
 </g>
 
                                                                                                                                                                                                                                                                                      </g> 
</svg> 
